<svg xmlns="http://www.w3.org/2000/svg" width="1280" height="910" viewBox="0 0 1280 910" role="img" aria-labelledby="title desc">
<title id="title">依赖就绪即可推进，Wave 不再是屏障</title><desc id="desc">示意时长：A=2、B=8、C=3、D=1；至少两个槽位，忽略调度开销。</desc>
<defs><marker id="arrow" markerWidth="10" markerHeight="10" refX="8" refY="5" orient="auto-start-reverse"><path d="M0,1 L8,5 L0,9" fill="none" stroke="#70849a" stroke-width="1.6"/></marker></defs>
<rect width="1280" height="910" rx="20" fill="#f5f8fc"/>
<rect x="0" width="1280" height="8" rx="4" fill="#087f83"/>
<g font-family="Noto Sans CJK SC, Microsoft YaHei, PingFang SC, sans-serif">
<text x="44" y="58" fill="#087f83" font-size="15" font-weight="700">OMO / ENGINEERING NOTES   •   05</text>
<text x="44" y="108" fill="#152c46" font-size="33" font-weight="700">依赖就绪即可推进，Wave 不再是屏障</text>
<text x="44" y="140" fill="#52677e" font-size="18" font-weight="400">示意时长：A=2、B=8、C=3、D=1；至少两个槽位，忽略调度开销。</text>
<rect x="44" y="186" width="265" height="115" rx="14" fill="white" stroke="#d7e1ed"/>
<rect x="44" y="200" width="5" height="87" rx="2" fill="#2866bb"/>
<text x="64" y="223" fill="#2866bb" font-size="23" font-weight="700">A · 需求</text>
<text x="64" y="258" fill="#152c46" font-size="18" font-weight="400">无依赖 / 2 个时间单位</text>
<rect x="44" y="330" width="265" height="115" rx="14" fill="white" stroke="#d7e1ed"/>
<rect x="44" y="344" width="5" height="87" rx="2" fill="#7354b4"/>
<text x="64" y="367" fill="#7354b4" font-size="23" font-weight="700">B · 测试调查</text>
<text x="64" y="402" fill="#152c46" font-size="18" font-weight="400">无依赖 / 8 个时间单位</text>
<rect x="475" y="186" width="285" height="115" rx="14" fill="white" stroke="#d7e1ed"/>
<rect x="475" y="200" width="5" height="87" rx="2" fill="#087f83"/>
<text x="495" y="223" fill="#087f83" font-size="23" font-weight="700">C · 实现</text>
<text x="495" y="258" fill="#152c46" font-size="18" font-weight="400">dependsOn: [A] / 耗时 3</text>
<rect x="951" y="261" width="285" height="115" rx="14" fill="white" stroke="#d7e1ed"/>
<rect x="951" y="275" width="5" height="87" rx="2" fill="#a35f13"/>
<text x="971" y="298" fill="#a35f13" font-size="23" font-weight="700">D · 验证</text>
<text x="971" y="333" fill="#152c46" font-size="18" font-weight="400">依赖 B + C / 耗时 1</text>
<path d="M309,242 L471,242" stroke="#70849a" stroke-width="2.2" fill="none" marker-end="url(#arrow)"/>
<path d="M760,242 L857,242 L857,298 L947,298" stroke="#70849a" stroke-width="2.2" fill="none" marker-end="url(#arrow)"/>
<path d="M309,386 L857,386 L857,340 L947,340" stroke="#70849a" stroke-width="2.2" fill="none" marker-end="url(#arrow)"/>
<text x="390" y="433" fill="#152c46" font-size="20" font-weight="600">C 无需等待 B；D 必须等待 B 和 C 都完成。</text>
<text x="44" y="505" fill="#152c46" font-size="22" font-weight="700">理想化调度对比</text>
<text x="241" y="545" fill="#52677e" font-size="16" font-weight="400">0</text>
<text x="387" y="545" fill="#52677e" font-size="16" font-weight="400">2</text>
<text x="606" y="545" fill="#52677e" font-size="16" font-weight="400">5</text>
<text x="825" y="545" fill="#52677e" font-size="16" font-weight="400">8</text>
<text x="898" y="545" fill="#52677e" font-size="16" font-weight="400">9</text>
<text x="1044" y="545" fill="#52677e" font-size="16" font-weight="400">11</text>
<text x="1117" y="545" fill="#52677e" font-size="16" font-weight="400">12</text>
<text x="44" y="595" fill="#152c46" font-size="21" font-weight="600">批次屏障</text>
<rect x="246" y="565" width="141" height="32" rx="5" fill="#2866bb" stroke="#2866bb"/>
<text x="258" y="588" fill="white" font-size="18" font-weight="700">A</text>
<rect x="246" y="604" width="579" height="32" rx="5" fill="#7354b4" stroke="#7354b4"/>
<text x="258" y="627" fill="white" font-size="18" font-weight="700">B</text>
<rect x="830" y="565" width="214" height="32" rx="5" fill="#087f83" stroke="#087f83"/>
<text x="842" y="588" fill="white" font-size="18" font-weight="700">C</text>
<rect x="1049" y="565" width="68" height="32" rx="5" fill="#a35f13" stroke="#a35f13"/>
<text x="1061" y="588" fill="white" font-size="18" font-weight="700">D</text>
<text x="44" y="697" fill="#152c46" font-size="21" font-weight="600">依赖前沿</text>
<rect x="246" y="667" width="141" height="32" rx="5" fill="#2866bb" stroke="#2866bb"/>
<text x="258" y="690" fill="white" font-size="18" font-weight="700">A</text>
<rect x="246" y="706" width="579" height="32" rx="5" fill="#7354b4" stroke="#7354b4"/>
<text x="258" y="729" fill="white" font-size="18" font-weight="700">B</text>
<rect x="392" y="667" width="214" height="32" rx="5" fill="#087f83" stroke="#087f83"/>
<text x="404" y="690" fill="white" font-size="18" font-weight="700">C</text>
<rect x="830" y="667" width="68" height="32" rx="5" fill="#a35f13" stroke="#a35f13"/>
<text x="842" y="690" fill="white" font-size="18" font-weight="700">D</text>
<rect x="44" y="784" width="1192" height="86" rx="14" fill="#eaf4f5" stroke="#c6e2e4"/>
<text x="66" y="816" fill="#087f83" font-size="21" font-weight="700">调度与数据是两份契约</text>
<text x="66" y="846" fill="#152c46" font-size="18" font-weight="400">dependsOn 只控制先后；上游结果不会自动插入下游 Prompt。以上时长是算例，不是性能实测。</text>
<text x="44" y="885" fill="#52677e" font-size="14" font-weight="400">原创源码示意 · bee849b228d1 · 2026-09-16  |  senpi-task/dag/graph.ts · scheduler.ts · omo-senpi/task/dag-tool.ts</text>
</g></svg>