<svg xmlns="http://www.w3.org/2000/svg" width="1280" height="830" viewBox="0 0 1280 830" role="img" aria-labelledby="title desc">
<title id="title">跨宿主复用机制，按宿主验收契约</title><desc id="desc">相同产品名称下，工具入口、事件协议与运行状态边界并不相同。</desc>
<defs><marker id="arrow" markerWidth="10" markerHeight="10" refX="8" refY="5" orient="auto-start-reverse"><path d="M0,1 L8,5 L0,9" fill="none" stroke="#70849a" stroke-width="1.6"/></marker></defs>
<rect width="1280" height="830" rx="20" fill="#f5f8fc"/>
<rect x="0" width="1280" height="8" rx="4" fill="#087f83"/>
<g font-family="Noto Sans CJK SC, Microsoft YaHei, PingFang SC, sans-serif">
<text x="44" y="58" fill="#087f83" font-size="15" font-weight="700">OMO / ENGINEERING NOTES   •   08</text>
<text x="44" y="108" fill="#152c46" font-size="33" font-weight="700">跨宿主复用机制，按宿主验收契约</text>
<text x="44" y="140" fill="#52677e" font-size="18" font-weight="400">相同产品名称下，工具入口、事件协议与运行状态边界并不相同。</text>
<rect x="44" y="192" width="376" height="251" rx="14" fill="white" stroke="#d7e1ed"/>
<rect x="44" y="206" width="5" height="223" rx="2" fill="#2866bb"/>
<text x="64" y="229" fill="#2866bb" font-size="23" font-weight="700">OpenCode</text>
<text x="64" y="264" fill="#152c46" font-size="18" font-weight="400">入口：PluginModule.server</text>
<text x="64" y="292" fill="#152c46" font-size="18" font-weight="400">会话：OpenCode SDK</text>
<text x="64" y="320" fill="#152c46" font-size="18" font-weight="400">任务：task + BackgroundManager</text>
<text x="64" y="348" fill="#152c46" font-size="18" font-weight="400">协作：可选 team_* 工具</text>
<text x="64" y="376" fill="#152c46" font-size="18" font-weight="400">上下文：消息 / 工具 / 压缩 Hook</text>
<rect x="452" y="192" width="376" height="251" rx="14" fill="white" stroke="#d7e1ed"/>
<rect x="452" y="206" width="5" height="223" rx="2" fill="#7354b4"/>
<text x="472" y="229" fill="#7354b4" font-size="23" font-weight="700">Codex</text>
<text x="472" y="264" fill="#152c46" font-size="18" font-weight="400">入口：.codex-plugin 清单</text>
<text x="472" y="292" fill="#152c46" font-size="18" font-weight="400">会话：Codex 宿主</text>
<text x="472" y="320" fill="#152c46" font-size="18" font-weight="400">任务：宿主原生协作</text>
<text x="472" y="348" fill="#152c46" font-size="18" font-weight="400">扩展：事件脚本 + Skill + MCP</text>
<text x="472" y="376" fill="#152c46" font-size="18" font-weight="400">ultrawork：短指针 → 完整 Skill</text>
<rect x="860" y="192" width="376" height="251" rx="14" fill="white" stroke="#d7e1ed"/>
<rect x="860" y="206" width="5" height="223" rx="2" fill="#087f83"/>
<text x="880" y="229" fill="#087f83" font-size="23" font-weight="700">Senpi / Native</text>
<text x="880" y="264" fill="#152c46" font-size="18" font-weight="400">入口：omo-ai → 固定 Senpi</text>
<text x="880" y="292" fill="#152c46" font-size="18" font-weight="400">会话：Senpi 引擎与扩展 API</text>
<text x="880" y="320" fill="#152c46" font-size="18" font-weight="400">任务：senpi-task / workflow</text>
<text x="880" y="348" fill="#152c46" font-size="18" font-weight="400">恢复：图日志 + 检查点</text>
<text x="880" y="376" fill="#152c46" font-size="18" font-weight="400">记忆：memory-core 运行接线</text>
<rect x="44" y="491" width="1192" height="137" rx="14" fill="white" stroke="#d7e1ed"/>
<rect x="44" y="505" width="5" height="109" rx="2" fill="#a35f13"/>
<text x="64" y="528" fill="#a35f13" font-size="23" font-weight="700">需要分别验证的五个问题</text>
<text x="64" y="563" fill="#152c46" font-size="20" font-weight="400">是否能安装？资产是否能发现？Hook 是否会触发？工具调用是否执行？中断恢复是否保持语义？</text>
<text x="64" y="591" fill="#152c46" font-size="20" font-weight="400">本次完成源码与局部机制验证，未把三种宿主全部安装并执行真实模型任务。</text>
<rect x="44" y="679" width="1192" height="86" rx="14" fill="#eaf4f5" stroke="#c6e2e4"/>
<text x="66" y="711" fill="#087f83" font-size="21" font-weight="700">实现与验收分层</text>
<text x="66" y="741" fill="#152c46" font-size="18" font-weight="400">Prompt 约定 → OMO 确定性检查 → 宿主工具权限 → 操作系统资源边界。</text>
<text x="44" y="805" fill="#52677e" font-size="14" font-weight="400">原创源码示意 · bee849b228d1 · 2026-09-16  |  plugin-interface.ts · .codex-plugin/plugin.json · native launcher · component-list.ts</text>
</g></svg>